PathFileType	4	(X/Y/Z)	 s05c0301.trc
DataRate	CameraRate	NumFrames	NumMarkers	Units	OrigDataRate	OrigDataStartFrame	OrigNumFrames
200	200	4	50	mm	200	501	2000
Frame#	Time	racr			lacr			c7			jug			rlel			rdr			llel			ldr			s2			lic			ric			lasi			rasi			rpsi			lpsi			rgt			lgt			rth1			rth2			rth3			rth4			rlfc			rmfc			rsh1			rsh2			rsh3			rsh4			rlmal			rmmal			rcal			rtoe			rmt5			lth1			lth2			lth4			lth3			llfc			lmfc			lsh1			lsh2			lsh3			lsh4			llmal			lmmal			lcal			ltoe			lmt5			SBIKE			LBIKE			RBIKE			
		X1	Y1	Z1	X2	Y2	Z2	X3	Y3	Z3	X4	Y4	Z4	X5	Y5	Z5	X6	Y6	Z6	X7	Y7	Z7	X8	Y8	Z8	X9	Y9	Z9	X10	Y10	Z10	X11	Y11	Z11	X12	Y12	Z12	X13	Y13	Z13	X14	Y14	Z14	X15	Y15	Z15	X16	Y16	Z16	X17	Y17	Z17	X18	Y18	Z18	X19	Y19	Z19	X20	Y20	Z20	X21	Y21	Z21	X22	Y22	Z22	X23	Y23	Z23	X24	Y24	Z24	X25	Y25	Z25	X26	Y26	Z26	X27	Y27	Z27	X28	Y28	Z28	X29	Y29	Z29	X30	Y30	Z30	X31	Y31	Z31	X32	Y32	Z32	X33	Y33	Z33	X34	Y34	Z34	X35	Y35	Z35	X36	Y36	Z36	X37	Y37	Z37	X38	Y38	Z38	X39	Y39	Z39	X40	Y40	Z40	X41	Y41	Z41	X42	Y42	Z42	X43	Y43	Z43	X44	Y44	Z44	X45	Y45	Z45	X46	Y46	Z46	X47	Y47	Z47	X48	Y48	Z48	X49	Y49	Z49	X50	Y50	Z50	
501	2.5050	667.499111	1341.618536	-187.244744	658.636010	1352.725130	-482.502595	647.137681	1430.224103	-341.492456	619.433691	1268.304026	-334.376408	563.770871	1119.894244	-18.316500	693.260532	918.033874	-66.685236	482.594583	1101.245644	-536.947438	673.880936	942.122544	-458.353280	106.353456	1203.025789	-242.733149	237.152737	1203.803792	-401.501866	278.649480	1210.882152	-116.838475	290.079195	1149.101990	-372.671610	298.124178	1143.426053	-150.818152	149.960779	1243.716305	-200.643235	144.372605	1248.309265	-287.529851	207.450193	1077.187836	-87.967273	169.514212	1115.786798	-426.578298	284.136520	993.286035	-72.949719	357.714364	943.489377	-65.745497	394.595024	863.133848	-64.276266	384.489959	966.109952	-78.280172	468.032937	739.500522	-82.284053	460.587128	738.268756	-192.402216	366.298115	702.498541	-59.900969	301.466669	644.592053	-77.856293	218.578068	623.165762	-85.130443	318.345382	621.375711	-103.897192	101.324953	560.325508	-99.965797	138.021553	570.232018	-179.057868	38.849178	601.467151	-150.465559	162.534639	331.879847	-150.310575	92.862850	407.899067	-86.089668	240.609065	988.491017	-454.358345	303.100866	930.020346	-453.130214	334.850477	947.466472	-442.146118	327.173047	842.564115	-451.739591	389.960490	710.555041	-427.247768	379.470158	699.118872	-320.677905	327.938298	596.785314	-450.628397	318.239823	510.396689	-437.220734	265.561194	438.992530	-433.658083	347.885635	502.300688	-413.963150	224.918325	321.533729	-425.161506	261.159681	354.800701	-349.015779	161.458082	284.919574	-379.987229	454.005210	251.934173	-397.797704	342.292635	230.064500	-457.247261	-213.434837	914.473323	-268.796481	-43.565836	84.789704	-474.974609	-51.748268	80.109530	-77.503923	
502	2.5100	668.545131	1342.942105	-186.007218	661.401049	1353.631646	-481.646880	648.996808	1431.242607	-340.855867	621.538326	1269.469851	-333.512085	564.337029	1120.304329	-18.299612	693.468863	918.148789	-66.654780	485.797399	1102.586987	-539.287778	674.542553	941.582318	-458.384125	107.456365	1203.216191	-245.321817	239.727830	1202.749617	-403.335010	278.881757	1212.731087	-118.416841	292.362239	1148.124348	-373.782499	298.824340	1145.208872	-151.762461	150.844117	1244.076442	-203.514089	146.420999	1247.824245	-290.522959	208.308840	1078.901098	-88.736739	171.333563	1114.335678	-427.778061	285.424301	995.211599	-72.247917	359.653870	946.370658	-65.020691	397.583798	866.526791	-63.641645	386.183611	969.370105	-77.662906	472.618666	744.358952	-81.631184	465.289548	743.474940	-192.491838	370.466089	708.087544	-59.851126	305.507657	650.227740	-77.816467	222.595709	628.949372	-85.274654	322.400205	626.760755	-103.613079	105.437488	566.157662	-100.331428	141.745570	575.424038	-179.078159	43.030721	607.434478	-150.810455	166.356704	337.780933	-150.276330	96.822648	413.858919	-86.136956	240.712216	986.328366	-455.324469	302.133635	926.742870	-453.915907	334.171675	943.651081	-443.116381	324.633686	838.904836	-452.277546	385.227179	706.325710	-427.579874	374.765448	695.478557	-321.425002	323.685422	592.221622	-451.203067	314.371647	505.860372	-437.762023	261.980227	434.264839	-434.079863	344.031645	497.943115	-414.364376	222.106266	316.835820	-425.880894	258.674456	350.642307	-350.127825	158.480551	280.850918	-380.704172	450.756212	245.113115	-397.555634	338.958228	224.218763	-457.361648	-213.421225	914.486113	-268.790295	-43.551263	84.789995	-474.974621	-51.746360	80.116907	-77.496204	
503	2.5150	669.688343	1344.433496	-184.755209	664.218905	1354.877598	-480.704927	651.015155	1432.379952	-339.793818	623.685895	1270.630202	-332.672706	564.880591	1120.938162	-18.136122	693.723284	918.291550	-66.637878	489.323057	1103.993598	-541.696714	675.124537	940.950342	-458.243735	108.588561	1203.624017	-248.063224	242.398213	1201.834735	-405.229246	278.879990	1214.854656	-120.118772	294.641142	1147.357455	-374.840321	299.393498	1147.213701	-152.856251	151.300109	1245.252559	-206.063531	147.716090	1248.211447	-293.177553	208.936507	1080.804843	-89.600409	173.209164	1113.091762	-428.973169	286.350458	997.441911	-71.906594	361.378628	949.662524	-64.784017	400.356888	870.326345	-63.158249	387.519568	972.999742	-77.526554	476.772426	749.836053	-80.978328	470.244692	748.765021	-191.165690	374.363946	713.788149	-59.833590	309.388228	655.989160	-77.790505	226.298804	635.096227	-85.538606	326.422675	632.336536	-103.263909	109.639361	572.055141	-100.789811	145.872880	581.167300	-179.450766	47.204642	613.199906	-151.302688	170.557427	343.724864	-150.168061	101.071265	419.822251	-86.237602	240.786493	984.348762	-456.206801	300.973211	923.673880	-454.644036	333.396785	939.964346	-443.919504	321.871492	835.388725	-452.748560	380.108881	702.209423	-427.591081	369.463202	691.570416	-321.907223	318.983547	587.933566	-451.674384	310.188982	501.643852	-438.326102	258.206569	429.635885	-434.724727	339.860269	493.868920	-414.845695	219.125084	312.284424	-426.639670	256.018706	346.656769	-351.246565	155.269165	276.916044	-381.503526	447.242938	238.464374	-397.324865	335.439025	218.565163	-457.517049	-213.419965	914.499298	-268.814780	-43.538038	84.802779	-474.977998	-51.711704	80.105576	-77.508296	
504	2.5200	670.876906	1345.758473	-183.486637	667.042857	1356.409161	-479.585251	653.058641	1433.795530	-338.859673	625.737971	1272.079458	-331.865640	565.515933	1121.672622	-18.027312	694.006235	918.436358	-66.622015	493.086230	1105.695789	-543.841738	675.925827	940.451394	-458.121931	109.563489	1204.338941	-250.965007	244.995347	1201.106073	-407.120325	278.761666	1217.202359	-121.917398	296.935692	1146.831173	-375.937899	299.698062	1149.309999	-154.039125	152.365855	1246.222729	-209.520857	149.346107	1248.411369	-296.408510	209.333868	1082.902466	-90.608642	175.097494	1112.084819	-430.225052	287.282408	1000.030175	-72.441584	362.938937	953.399271	-65.004996	402.953593	874.537830	-63.039921	388.764269	976.817124	-77.766030	480.682204	755.257679	-80.353359	474.633100	754.171939	-190.766121	377.959621	719.807324	-59.821770	312.920592	661.794562	-77.724623	230.091648	641.088117	-85.895017	330.180789	637.936745	-102.877688	113.832313	577.840327	-101.403459	149.925426	586.864322	-179.874353	51.060558	618.782356	-152.078598	174.913947	349.530421	-150.208350	105.458551	425.626650	-86.366167	240.804944	982.699300	-457.090425	299.743152	920.757385	-455.283998	332.419663	936.485019	-444.682489	318.768774	832.133035	-453.084194	374.700565	698.365697	-427.628815	364.776668	687.106335	-322.411716	313.925398	584.030443	-452.070690	305.629815	497.587499	-438.807660	254.068436	425.375557	-435.354089	335.323309	490.026328	-415.256041	215.955504	307.887197	-427.313421	253.206018	342.853981	-352.370702	151.828161	273.204398	-382.442888	443.468570	231.928003	-397.020265	331.745918	213.117178	-457.678752	-213.453003	914.475515	-268.825462	-43.528599	84.802589	-474.971289	-51.718345	80.106020	-77.526830	
